<?xml version="1.0" encoding="iso-8859-1"?>
<!-- Generator: Adobe Illustrator 22.0.1, SVG Export Plug-In . SVG Version: 6.00 Build 0)  -->
<svg version="1.1" id="&#x56FE;&#x5C42;_1" xmlns="http://www.w3.org/2000/svg" xmlns:xlink="http://www.w3.org/1999/xlink" x="0px"
	 y="0px" viewBox="0 0 1000 1000" style="enable-background:new 0 0 1000 1000;" xml:space="preserve">
<g id="XMLID_1_">
	<g>
		<polygon style="fill:#009900;" points="915.69,260 777.13,340 500,180 500,20 		"/>
		<polygon style="fill:#009900;" points="915.69,740 500,980 500,820.09 500,820 777.13,660 		"/>
		<polygon style="fill:#154902;" points="707.85,380.04 707.85,620.04 569.2,540.05 569.2,460.05 		"/>
		<polygon style="fill:#154902;" points="707.85,380.04 569.2,460.05 499.92,420.05 500,260.04 		"/>
		<polygon style="fill:#009900;" points="500,820.09 500,980 84.31,740 222.87,660 500,820 		"/>
		<polygon style="fill:#009900;" points="500,20 500,180 222.87,340 84.31,260 		"/>
		<polygon style="fill:#154902;" points="500,260.04 499.92,420.05 430.64,460.05 292.15,380.04 		"/>
		<polygon style="fill:#154902;" points="430.64,460.05 430.64,540.05 292.15,620.04 292.15,380.04 		"/>
		<polygon style="fill:#009900;" points="222.87,340 222.87,660 84.31,740 84.31,260 		"/>
	</g>
	<g>
	</g>
</g>
</svg>
